<svg xmlns="http://www.w3.org/2000/svg" viewBox="0 0 24 24" fill="currentColor" width="48px" height="48px">
  <path d="M19.5 4.5c-2.48 0-4.73.99-6.36 2.64C11.51 5.49 9.26 4.5 6.78 4.5c-3.83 0-6.94 3.36-6.94 7.5 0 4.14 3.11 7.5 6.94 7.5 2.48 0 4.73-.99 6.36-2.64 1.63 1.65 3.88 2.64 6.36 2.64 3.83 0 6.94-3.36 6.94-7.5s-3.11-7.5-6.94-7.5zm-12.72 12c-2.43 0-4.44-2.24-4.44-5s2.01-5 4.44-5c1.93 0 3.63.97 4.5 2.45C7.3 9.72 6.78 12 6.78 12s.52 2.28 2.47 3.05c-.87 1.48-2.57 2.45-4.5 2.45zm12.72 0c-1.93 0-3.63-.97-4.5-2.45 1.95-.77 2.47-3.05 2.47-3.05s-.52-2.28-2.47-3.05c.87-1.48 2.57-2.45 4.5-2.45 2.43 0 4.44 2.24 4.44 5s-2.01 5-4.44 5z"/>
</svg>